<svg id="Layer_1" data-name="Layer 1" xmlns="http://www.w3.org/2000/svg" viewBox="0 0 35 35"><defs><style>.cls-1{fill:#fff;}</style></defs><title>Instagram Icon</title><path class="cls-1" d="M25.2,12.1a3,3,0,0,0-.7-1.1,2.59,2.59,0,0,0-1.1-.7,5.35,5.35,0,0,0-1.8-.3c-1,0-1.3-.1-4-0.1a35.8,35.8,0,0,0-4,.1,4.84,4.84,0,0,0-1.8.3,3,3,0,0,0-1.1.7,2.59,2.59,0,0,0-.7,1.1,5.35,5.35,0,0,0-.3,1.8c0,1-.1,1.3-0.1,4a35.8,35.8,0,0,0,.1,4,4.84,4.84,0,0,0,.3,1.8,3,3,0,0,0,.7,1.1,2.59,2.59,0,0,0,1.1.7,5.35,5.35,0,0,0,1.8.3c1,0,1.3.1,4,.1a35.8,35.8,0,0,0,4-.1,4.84,4.84,0,0,0,1.8-.3,3,3,0,0,0,1.1-.7,2.59,2.59,0,0,0,.7-1.1,5.35,5.35,0,0,0,.3-1.8c0-1,.1-1.3.1-4a35.8,35.8,0,0,0-.1-4A3.36,3.36,0,0,0,25.2,12.1ZM17.6,22.9a5.1,5.1,0,1,1,5.1-5.1A5.19,5.19,0,0,1,17.6,22.9Zm5.2-9.1A1.2,1.2,0,1,1,24,12.6,1.16,1.16,0,0,1,22.8,13.8Z"/><circle class="cls-1" cx="17.6" cy="17.9" r="3.3"/><path class="cls-1" d="M17.5,0.5a17,17,0,1,0,17,17A17,17,0,0,0,17.5.5Zm9.8,21.4a5.36,5.36,0,0,1-.5,2.4A6.19,6.19,0,0,1,25.7,26,4.52,4.52,0,0,1,24,27.1a9.86,9.86,0,0,1-2.4.5c-1,0-1.4.1-4.1,0.1a36.93,36.93,0,0,1-4.1-.1,5.36,5.36,0,0,1-2.4-.5A6.19,6.19,0,0,1,9.3,26a4.52,4.52,0,0,1-1.1-1.7,9.86,9.86,0,0,1-.5-2.4c0-1-.1-1.4-0.1-4.1a36.93,36.93,0,0,1,.1-4.1,5.36,5.36,0,0,1,.5-2.4A6.19,6.19,0,0,1,9.3,9.6,4.52,4.52,0,0,1,11,8.5,9.86,9.86,0,0,1,13.4,8h4.2a36.93,36.93,0,0,1,4.1.1,5.36,5.36,0,0,1,2.4.5,6.19,6.19,0,0,1,1.7,1.1,4.52,4.52,0,0,1,1.1,1.7,9.86,9.86,0,0,1,.5,2.4c0,1,.1,1.4.1,4.1A26.07,26.07,0,0,1,27.3,21.9Z"/></svg>