<?xml version="1.0" encoding="utf-8"?>
<!-- Generator: Adobe Illustrator 19.2.0, SVG Export Plug-In . SVG Version: 6.00 Build 0)  -->
<svg version="1.1" id="Layer_1" xmlns="http://www.w3.org/2000/svg" xmlns:xlink="http://www.w3.org/1999/xlink" x="0px" y="0px"
	 viewBox="0 0 35 35" style="enable-background:new 0 0 35 35;" xml:space="preserve">
<title>Instagram Icon</title>
<path d="M25.2,12.1c-0.1-0.4-0.4-0.8-0.7-1.1c-0.3-0.3-0.7-0.6-1.1-0.7c-0.6-0.2-1.2-0.3-1.8-0.3c-1,0-1.3-0.1-4-0.1
	c-1.3,0-2.7,0-4,0.1c-0.6,0-1.2,0.1-1.8,0.3c-0.4,0.1-0.8,0.4-1.1,0.7c-0.3,0.3-0.6,0.7-0.7,1.1c-0.2,0.6-0.3,1.2-0.3,1.8
	c0,1-0.1,1.3-0.1,4c0,1.3,0,2.7,0.1,4c0,0.6,0.1,1.2,0.3,1.8c0.1,0.4,0.4,0.8,0.7,1.1c0.3,0.3,0.7,0.6,1.1,0.7
	c0.6,0.2,1.2,0.3,1.8,0.3c1,0,1.3,0.1,4,0.1c1.3,0,2.7,0,4-0.1c0.6,0,1.2-0.1,1.8-0.3c0.4-0.1,0.8-0.4,1.1-0.7
	c0.3-0.3,0.6-0.7,0.7-1.1c0.2-0.6,0.3-1.2,0.3-1.8c0-1,0.1-1.3,0.1-4c0-1.3,0-2.7-0.1-4C25.6,13.3,25.5,12.7,25.2,12.1z M17.6,22.9
	c-2.8,0-5.1-2.3-5.1-5.1s2.3-5.1,5.1-5.1c2.8,0,5.1,2.3,5.1,5.1C22.7,20.6,20.4,22.9,17.6,22.9z M22.8,13.8c-0.7,0-1.2-0.5-1.2-1.2
	s0.5-1.2,1.2-1.2c0.7,0,1.2,0.5,1.2,1.2l0,0C24,13.2,23.5,13.8,22.8,13.8C22.9,13.8,22.8,13.8,22.8,13.8z"/>
<circle cx="17.6" cy="17.9" r="3.3"/>
<path d="M17.5,0.5c-9.4,0-17,7.6-17,17s7.6,17,17,17s17-7.6,17-17S26.9,0.5,17.5,0.5z M27.3,21.9c0,0.8-0.2,1.6-0.5,2.4
	c-0.3,0.6-0.6,1.2-1.1,1.7c-0.5,0.5-1.1,0.9-1.7,1.1c-0.8,0.3-1.6,0.4-2.4,0.5c-1,0-1.4,0.1-4.1,0.1c-1.4,0-2.7,0-4.1-0.1
	c-0.8,0-1.6-0.2-2.4-0.5c-0.6-0.3-1.2-0.6-1.7-1.1c-0.5-0.5-0.9-1.1-1.1-1.7c-0.3-0.8-0.4-1.6-0.5-2.4c0-1-0.1-1.4-0.1-4.1
	c0-1.4,0-2.7,0.1-4.1c0-0.8,0.2-1.6,0.5-2.4c0.3-0.6,0.6-1.2,1.1-1.7c0.5-0.5,1.1-0.9,1.7-1.1c0.8-0.3,1.6-0.4,2.4-0.5h4.2
	c1.4,0,2.7,0,4.1,0.1c0.8,0,1.6,0.2,2.4,0.5c0.6,0.3,1.2,0.6,1.7,1.1c0.5,0.5,0.9,1.1,1.1,1.7c0.3,0.8,0.4,1.6,0.5,2.4
	c0,1,0.1,1.4,0.1,4.1C27.5,19.2,27.5,20.6,27.3,21.9z"/>
</svg>
