<?xml version="1.0" encoding="utf-8"?>
<!-- Generator: Adobe Illustrator 19.2.0, SVG Export Plug-In . SVG Version: 6.00 Build 0)  -->
<svg version="1.1" id="Layer_1" xmlns="http://www.w3.org/2000/svg" xmlns:xlink="http://www.w3.org/1999/xlink" x="0px" y="0px"
	 viewBox="0 0 500.2 111" style="enable-background:new 0 0 500.2 111;" xml:space="preserve">
<style type="text/css">
	.st0{fill:#FFFFFF;}
</style>
<title>Tangents Logo</title>
<g id="_Group_">
	<path id="_Compound_Path_" class="st0" d="M268.2,18c-0.1-10-8.3-18-18.2-17.9c-10,0.1-18,8.3-17.9,18.2c0.1,7,4.2,13.3,10.5,16.3
		h-9.5v2.1h34.1v-2.1h-9.5C264.1,31.6,268.3,25.1,268.2,18z M234.1,18.3c-0.1-8.8,7-16.1,15.8-16.2h0.2c8.8,0,16,7.2,16,16
		c0,8.8-7.2,16-16,16C241.4,34.2,234.2,27.1,234.1,18.3z"/>
	<g id="_Group_2">
		<path id="_Compound_Path_2" class="st0" d="M9.7,79.6h-9c-0.3,0-0.6-0.2-0.6-0.5c0-0.1,0-0.1,0-0.2v-0.7c0-0.3,0.2-0.6,0.6-0.6
			c0,0,0,0,0,0h20.2c0.3,0,0.6,0.2,0.6,0.6c0,0,0,0,0,0V79c0,0.3-0.2,0.6-0.6,0.6c0,0,0,0,0,0h-9v30.2c0,0.4-0.3,0.6-0.7,0.6
			c0,0,0,0,0,0h-0.9c-0.3,0-0.6-0.3-0.6-0.6L9.7,79.6L9.7,79.6z"/>
		<path id="_Compound_Path_3" class="st0" d="M58.7,109.8l14.4-32.6c0.1-0.2,0.3-0.3,0.6-0.3h0.1c0.3,0,0.5,0.1,0.6,0.3l14.3,32.6
			c0.1,0.3,0.1,0.6-0.4,0.6h-1.2c-0.3,0-0.5-0.2-0.7-0.4l-3.8-8.6H64.7L61,110c-0.1,0.3-0.4,0.4-0.7,0.4H59
			C58.7,110.4,58.6,110.2,58.7,109.8z M81.9,99.5l-8-18.9h-0.1l-8.1,18.9H81.9L81.9,99.5z"/>
		<path id="_Compound_Path_4" class="st0" d="M132.4,77.7c0-0.4,0.3-0.6,0.7-0.6c0,0,0,0,0,0h0.8l22.5,29.3l0,0V78.2
			c0-0.3,0.3-0.6,0.6-0.6h0.9c0.3,0,0.6,0.3,0.6,0.6v32.1c0,0.4-0.3,0.6-0.7,0.6c0,0,0,0,0,0h-0.6c0,0-0.4-0.1-22.7-29.6l0,0v28.5
			c0,0.3-0.3,0.6-0.6,0.6h-0.9c-0.3,0-0.6-0.3-0.6-0.6L132.4,77.7L132.4,77.7z"/>
		<path id="_Compound_Path_5" class="st0" d="M221.6,77.1c4.2-0.1,8.3,1.5,11.3,4.4c0.2,0.2,0.2,0.6,0,0.8c-0.2,0.3-0.5,0.6-0.8,0.8
			c-0.1,0.2-0.4,0.3-0.6,0.2c-0.1,0-0.1-0.1-0.2-0.2c-2.7-2.5-6.2-3.9-9.9-3.9c-8.2,0-14.8,6.6-14.8,14.8c0,8.1,6.6,14.7,14.8,14.8
			c3.4,0.1,6.8-0.8,9.8-2.6v-8.8h-8c-0.3,0.1-0.5-0.1-0.6-0.4c0-0.1,0-0.2,0-0.3v-0.9c0-0.4,0.1-0.6,0.6-0.6h9.6
			c0.3,0,0.6,0.2,0.6,0.6v10.9c0,0.5-0.2,1-0.6,1.2c-3.4,2-7.3,3-11.2,3c-9.3,0.2-17-7.2-17.3-16.5s7.2-17,16.5-17.3
			C221.1,77.1,221.3,77.1,221.6,77.1z"/>
		<path id="_Compound_Path_6" class="st0" d="M280.3,78.2c0-0.3,0.3-0.6,0.6-0.6h18.8c0.3,0,0.6,0.3,0.6,0.6V79
			c0,0.3-0.3,0.6-0.6,0.6h-17.2v12.9h14.9c0.3,0,0.6,0.3,0.6,0.6v0.8c0,0.3-0.3,0.6-0.6,0.6h-14.9v13.9h17.1c0.3,0,0.6,0.3,0.6,0.6
			v0.8c0,0.3-0.3,0.6-0.6,0.6h-18.8c-0.3,0-0.6-0.3-0.6-0.6L280.3,78.2L280.3,78.2z"/>
		<path id="_Compound_Path_7" class="st0" d="M346.7,77.7c0-0.4,0.3-0.6,0.7-0.6c0,0,0,0,0,0h0.8l22.5,29.3l0,0V78.2
			c0-0.3,0.3-0.6,0.6-0.6h1c0.3,0,0.6,0.3,0.6,0.6v32.1c0,0.4-0.3,0.6-0.7,0.6c0,0,0,0,0,0h-0.6c0,0-0.4-0.1-22.7-29.6l0,0v28.5
			c0,0.3-0.3,0.6-0.6,0.6h-1c-0.3,0-0.6-0.3-0.6-0.6L346.7,77.7L346.7,77.7z"/>
		<path id="_Compound_Path_8" class="st0" d="M426.3,79.6h-9c-0.3,0-0.6-0.2-0.6-0.5c0-0.1,0-0.1,0-0.2v-0.7c0-0.3,0.2-0.6,0.6-0.6
			c0,0,0,0,0,0h20.1c0.3,0,0.6,0.2,0.6,0.6c0,0,0,0,0,0V79c0,0.3-0.2,0.6-0.6,0.6c0,0,0,0,0,0h-9v30.2c0,0.4-0.3,0.6-0.7,0.6
			c0,0,0,0,0,0h-0.8c-0.3,0-0.6-0.3-0.6-0.6L426.3,79.6L426.3,79.6z"/>
		<path id="_Compound_Path_9" class="st0" d="M479.8,106l0.4-0.6c0.2-0.3,0.6-0.4,0.9-0.3c0,0,0.1,0.1,0.1,0.1
			c2.4,2.2,5.4,3.5,8.7,3.6c4.3,0,7.9-2.9,7.9-6.3c0-4.2-3.4-6-9.1-8c-5.4-1.9-9-3.8-9-9.2c0-3.5,2.8-8.3,10.1-8.3
			c2.9,0,5.6,0.9,8.1,2.4c0.3,0.2,0.4,0.6,0.2,0.9c0,0,0,0.1-0.1,0.1c-0.1,0.2-0.3,0.4-0.4,0.6c-0.2,0.3-0.6,0.5-0.9,0.3
			c0,0-0.1,0-0.1-0.1c-2.1-1.3-4.4-2.1-6.9-2.2c-5.8,0-7.9,3.6-7.9,6.2c0,4,3,5.7,7.8,7.3c6.4,2.2,10.5,4.4,10.5,9.9
			c0,4.7-4.8,8.3-10.2,8.3c-3.7,0-7.2-1.4-9.9-3.8c-0.3-0.1-0.4-0.5-0.3-0.8C479.7,106.2,479.8,106.1,479.8,106z"/>
	</g>
</g>
</svg>
