<svg id="Layer_1" data-name="Layer 1" xmlns="http://www.w3.org/2000/svg" viewBox="0 0 625.71 188.57"><defs><style>.cls-1{fill:#fff;}</style></defs><title>Tangents Logo</title><g id="_Group_" data-name="&lt;Group&gt;"><path id="_Compound_Path_" data-name="&lt;Compound Path&gt;" class="cls-1" d="M330.93,50.07a18.07,18.07,0,1,0-25.59,16.61h-9.51v2.08h34.06V66.68h-9.5A18.09,18.09,0,0,0,330.93,50.07Zm-34.06.38a16,16,0,0,1,15.81-16.17h0.18A16,16,0,1,1,296.87,50.45Z"/><g id="_Group_2" data-name="&lt;Group&gt;"><path id="_Compound_Path_2" data-name="&lt;Compound Path&gt;" class="cls-1" d="M72.42,111.72h-9a0.58,0.58,0,0,1-.61-0.7v-0.7a0.59,0.59,0,0,1,.61-0.61H83.62a0.59,0.59,0,0,1,.61.61v0.8a0.59,0.59,0,0,1-.61.61h-9v30.18a0.66,0.66,0,0,1-.75.61H73a0.62,0.62,0,0,1-.61-0.61V111.72Z"/><path id="_Compound_Path_3" data-name="&lt;Compound Path&gt;" class="cls-1" d="M121.44,141.94l14.43-32.62a0.65,0.65,0,0,1,.56-0.33h0.14a0.6,0.6,0,0,1,.61.33l14.29,32.62c0.09,0.28.09,0.56-.42,0.56h-1.22a0.76,0.76,0,0,1-.66-0.42l-3.8-8.62h-17.9l-3.75,8.62a0.76,0.76,0,0,1-.66.42h-1.31C121.44,142.5,121.3,142.32,121.44,141.94Zm23.15-10.31-8-18.89h-0.09l-8.15,18.89h16.26Z"/><path id="_Compound_Path_4" data-name="&lt;Compound Path&gt;" class="cls-1" d="M195.16,109.84a0.64,0.64,0,0,1,.7-0.61h0.8l22.49,29.29h0V110.31a0.62,0.62,0,0,1,.61-0.61h0.94a0.62,0.62,0,0,1,.61.61v32.05a0.66,0.66,0,0,1-.75.61H220s-0.42-.14-22.68-29.57h0v28.49a0.62,0.62,0,0,1-.61.61h-0.89a0.62,0.62,0,0,1-.61-0.61V109.84Z"/><path id="_Compound_Path_5" data-name="&lt;Compound Path&gt;" class="cls-1" d="M284.34,109.23a16,16,0,0,1,11.34,4.36,0.6,0.6,0,0,1,0,.84c-0.23.28-.52,0.56-0.75,0.8a0.46,0.46,0,0,1-.8,0,14.41,14.41,0,0,0-9.89-3.94,14.76,14.76,0,0,0,0,29.52,17.57,17.57,0,0,0,9.75-2.58v-8.81h-8a0.5,0.5,0,0,1-.61-0.61v-0.94c0-.37.09-0.56,0.61-0.56h9.61a0.61,0.61,0,0,1,.61.56v10.87a1.29,1.29,0,0,1-.65,1.22,21.69,21.69,0,0,1-11.25,3A16.87,16.87,0,1,1,284.34,109.23Z"/><path id="_Compound_Path_6" data-name="&lt;Compound Path&gt;" class="cls-1" d="M343,110.31a0.62,0.62,0,0,1,.61-0.61h18.79a0.62,0.62,0,0,1,.61.61v0.8a0.62,0.62,0,0,1-.61.61H345.22v12.93h14.85a0.62,0.62,0,0,1,.61.61v0.8a0.62,0.62,0,0,1-.61.61H345.22v13.87h17.15a0.62,0.62,0,0,1,.61.61v0.75a0.62,0.62,0,0,1-.61.61H343.58a0.62,0.62,0,0,1-.61-0.61V110.31Z"/><path id="_Compound_Path_7" data-name="&lt;Compound Path&gt;" class="cls-1" d="M409.42,109.84a0.64,0.64,0,0,1,.7-0.61h0.8l22.49,29.29h0V110.31a0.62,0.62,0,0,1,.61-0.61H435a0.62,0.62,0,0,1,.61.61v32.05a0.66,0.66,0,0,1-.75.61h-0.61s-0.42-.14-22.68-29.57h0v28.49a0.62,0.62,0,0,1-.61.61H410a0.62,0.62,0,0,1-.61-0.61V109.84Z"/><path id="_Compound_Path_8" data-name="&lt;Compound Path&gt;" class="cls-1" d="M489,111.72h-9a0.58,0.58,0,0,1-.61-0.7v-0.7a0.59,0.59,0,0,1,.61-0.61h20.15a0.59,0.59,0,0,1,.61.61v0.8a0.59,0.59,0,0,1-.61.61h-9v30.18a0.66,0.66,0,0,1-.75.61h-0.84a0.62,0.62,0,0,1-.61-0.61V111.72Z"/><path id="_Compound_Path_9" data-name="&lt;Compound Path&gt;" class="cls-1" d="M542.57,138.15l0.42-.56a0.65,0.65,0,0,1,1-.19,13.63,13.63,0,0,0,8.67,3.61c4.27,0,7.87-2.86,7.87-6.28,0-4.17-3.42-6-9.09-8-5.44-1.92-9-3.84-9-9.23,0-3.51,2.81-8.29,10.12-8.29a15.39,15.39,0,0,1,8.06,2.39,0.67,0.67,0,0,1,.19,1,4.23,4.23,0,0,0-.37.61,0.67,0.67,0,0,1-1,.23,13.73,13.73,0,0,0-6.89-2.2c-5.76,0-7.92,3.56-7.92,6.23,0,4,3,5.72,7.78,7.26,6.42,2.2,10.5,4.45,10.5,9.89,0,4.69-4.83,8.34-10.21,8.34a15.26,15.26,0,0,1-9.93-3.84A0.6,0.6,0,0,1,542.57,138.15Z"/></g></g></svg>