<?xml version="1.0" encoding="utf-8"?>
<!-- Generator: Adobe Illustrator 19.2.0, SVG Export Plug-In . SVG Version: 6.00 Build 0)  -->
<svg version="1.1" id="Layer_1" xmlns="http://www.w3.org/2000/svg" xmlns:xlink="http://www.w3.org/1999/xlink" x="0px" y="0px"
	 viewBox="0 0 625.7 188.6" style="enable-background:new 0 0 625.7 188.6;" xml:space="preserve">
<title>Tangents Logo</title>
<g id="_Group_">
	<path id="_Compound_Path_" d="M330.9,50.1c-0.1-10-8.3-18-18.2-17.9c-10,0.1-18,8.3-17.9,18.2c0.1,7,4.2,13.3,10.5,16.3h-9.5v2.1
		h34.1v-2.1h-9.5C326.9,63.7,331,57.2,330.9,50.1z M296.9,50.5c-0.1-8.8,7-16.1,15.8-16.2h0.2c8.8,0,16,7.2,16,16
		c0,8.8-7.2,16-16,16C304.1,66.3,297,59.2,296.9,50.5z"/>
	<g id="_Group_2">
		<path id="_Compound_Path_2" d="M72.4,111.7h-9c-0.3,0-0.6-0.2-0.6-0.5c0-0.1,0-0.1,0-0.2v-0.7c0-0.3,0.2-0.6,0.6-0.6c0,0,0,0,0,0
			h20.2c0.3,0,0.6,0.2,0.6,0.6c0,0,0,0,0,0v0.8c0,0.3-0.2,0.6-0.6,0.6c0,0,0,0,0,0h-9v30.2c0,0.4-0.3,0.6-0.7,0.6c0,0,0,0,0,0H73
			c-0.3,0-0.6-0.3-0.6-0.6L72.4,111.7L72.4,111.7z"/>
		<path id="_Compound_Path_3" d="M121.4,141.9l14.4-32.6c0.1-0.2,0.3-0.3,0.6-0.3h0.1c0.3,0,0.5,0.1,0.6,0.3l14.3,32.6
			c0.1,0.3,0.1,0.6-0.4,0.6h-1.2c-0.3,0-0.5-0.2-0.7-0.4l-3.8-8.6h-17.9l-3.8,8.6c-0.1,0.3-0.4,0.4-0.7,0.4h-1.3
			C121.4,142.5,121.3,142.3,121.4,141.9z M144.6,131.6l-8-18.9h-0.1l-8.1,18.9H144.6L144.6,131.6z"/>
		<path id="_Compound_Path_4" d="M195.2,109.8c0-0.4,0.3-0.6,0.7-0.6c0,0,0,0,0,0h0.8l22.5,29.3l0,0v-28.2c0-0.3,0.3-0.6,0.6-0.6
			h0.9c0.3,0,0.6,0.3,0.6,0.6v32.1c0,0.4-0.3,0.6-0.7,0.6c0,0,0,0,0,0H220c0,0-0.4-0.1-22.7-29.6l0,0v28.5c0,0.3-0.3,0.6-0.6,0.6
			h-0.9c-0.3,0-0.6-0.3-0.6-0.6L195.2,109.8L195.2,109.8z"/>
		<path id="_Compound_Path_5" d="M284.3,109.2c4.2-0.1,8.3,1.5,11.3,4.4c0.2,0.2,0.2,0.6,0,0.8c-0.2,0.3-0.5,0.6-0.8,0.8
			c-0.1,0.2-0.4,0.3-0.6,0.2c-0.1,0-0.1-0.1-0.2-0.2c-2.7-2.5-6.2-3.9-9.9-3.9c-8.2,0-14.8,6.6-14.8,14.8c0,8.1,6.6,14.7,14.8,14.8
			c3.4,0.1,6.8-0.8,9.8-2.6v-8.8h-8c-0.3,0.1-0.5-0.1-0.6-0.4c0-0.1,0-0.2,0-0.3v-0.9c0-0.4,0.1-0.6,0.6-0.6h9.6
			c0.3,0,0.6,0.2,0.6,0.6v10.9c0,0.5-0.2,1-0.6,1.2c-3.4,2-7.3,3-11.2,3c-9.3,0.2-17-7.2-17.3-16.5s7.2-17,16.5-17.3
			C283.8,109.2,284.1,109.2,284.3,109.2z"/>
		<path id="_Compound_Path_6" d="M343,110.3c0-0.3,0.3-0.6,0.6-0.6h18.8c0.3,0,0.6,0.3,0.6,0.6v0.8c0,0.3-0.3,0.6-0.6,0.6h-17.2
			v12.9h14.9c0.3,0,0.6,0.3,0.6,0.6v0.8c0,0.3-0.3,0.6-0.6,0.6h-14.9v13.9h17.1c0.3,0,0.6,0.3,0.6,0.6v0.8c0,0.3-0.3,0.6-0.6,0.6
			h-18.8c-0.3,0-0.6-0.3-0.6-0.6L343,110.3L343,110.3z"/>
		<path id="_Compound_Path_7" d="M409.4,109.8c0-0.4,0.3-0.6,0.7-0.6c0,0,0,0,0,0h0.8l22.5,29.3l0,0v-28.2c0-0.3,0.3-0.6,0.6-0.6h1
			c0.3,0,0.6,0.3,0.6,0.6v32.1c0,0.4-0.3,0.6-0.7,0.6c0,0,0,0,0,0h-0.6c0,0-0.4-0.1-22.7-29.6l0,0v28.5c0,0.3-0.3,0.6-0.6,0.6h-1
			c-0.3,0-0.6-0.3-0.6-0.6L409.4,109.8L409.4,109.8z"/>
		<path id="_Compound_Path_8" d="M489,111.7h-9c-0.3,0-0.6-0.2-0.6-0.5c0-0.1,0-0.1,0-0.2v-0.7c0-0.3,0.2-0.6,0.6-0.6c0,0,0,0,0,0
			h20.1c0.3,0,0.6,0.2,0.6,0.6c0,0,0,0,0,0v0.8c0,0.3-0.2,0.6-0.6,0.6c0,0,0,0,0,0h-9v30.2c0,0.4-0.3,0.6-0.7,0.6c0,0,0,0,0,0h-0.8
			c-0.3,0-0.6-0.3-0.6-0.6L489,111.7L489,111.7z"/>
		<path id="_Compound_Path_9" d="M542.6,138.1l0.4-0.6c0.2-0.3,0.6-0.4,0.9-0.3c0,0,0.1,0.1,0.1,0.1c2.4,2.2,5.4,3.5,8.7,3.6
			c4.3,0,7.9-2.9,7.9-6.3c0-4.2-3.4-6-9.1-8c-5.4-1.9-9-3.8-9-9.2c0-3.5,2.8-8.3,10.1-8.3c2.9,0,5.6,0.9,8.1,2.4
			c0.3,0.2,0.4,0.6,0.2,0.9c0,0,0,0.1-0.1,0.1c-0.1,0.2-0.3,0.4-0.4,0.6c-0.2,0.3-0.6,0.5-0.9,0.3c0,0-0.1,0-0.1-0.1
			c-2.1-1.3-4.4-2.1-6.9-2.2c-5.8,0-7.9,3.6-7.9,6.2c0,4,3,5.7,7.8,7.3c6.4,2.2,10.5,4.4,10.5,9.9c0,4.7-4.8,8.3-10.2,8.3
			c-3.7,0-7.2-1.4-9.9-3.8c-0.3-0.1-0.4-0.5-0.3-0.8C542.5,138.3,542.5,138.2,542.6,138.1z"/>
	</g>
</g>
</svg>
