<svg id="Layer_1" data-name="Layer 1" xmlns="http://www.w3.org/2000/svg" viewBox="0 0 500.25 111"><title>Tangents Logo-02</title><g id="_Group_" data-name=" Group "><path id="_Compound_Path_" data-name=" Compound Path " d="M268.2,18a18.07,18.07,0,1,0-25.59,16.61H233.1v2.08h34.06V34.57h-9.5A18.09,18.09,0,0,0,268.2,18Zm-34.06.38A16,16,0,0,1,249.95,2.17h0.18A16,16,0,1,1,234.14,18.34Z"/><g id="_Group_2" data-name=" Group 2"><path id="_Compound_Path_2" data-name=" Compound Path 2" d="M9.69,79.61h-9a0.58,0.58,0,0,1-.61-0.7v-0.7A0.59,0.59,0,0,1,.64,77.6H20.89a0.59,0.59,0,0,1,.61.57s0,0,0,0V79a0.59,0.59,0,0,1-.57.61h-9V109.8a0.66,0.66,0,0,1-.7.61H10.27a0.62,0.62,0,0,1-.61-0.61V79.61h0Z"/><path id="_Compound_Path_3" data-name=" Compound Path 3" d="M58.71,109.83L73.14,77.21a0.65,0.65,0,0,1,.56-0.33h0.14a0.6,0.6,0,0,1,.61.33l14.29,32.62c0.09,0.28.09,0.56-.42,0.56H87.1a0.76,0.76,0,0,1-.66-0.42l-3.8-8.62H64.74L61,110a0.76,0.76,0,0,1-.66.42H59C58.71,110.39,58.57,110.21,58.71,109.83ZM81.86,99.52l-8-18.89H73.77L65.62,99.52H81.86Z"/><path id="_Compound_Path_4" data-name=" Compound Path 4" d="M132.43,77.73a0.64,0.64,0,0,1,.67-0.61h0.83l22.49,29.29h0V78.2a0.62,0.62,0,0,1,.61-0.61H158a0.62,0.62,0,0,1,.61.61v32.05a0.66,0.66,0,0,1-.7.61h-0.61s-0.42-.14-22.68-29.57h0v28.49a0.62,0.62,0,0,1-.61.61h-0.89a0.62,0.62,0,0,1-.61-0.61V77.73h-0.05Z"/><path id="_Compound_Path_5" data-name=" Compound Path 5" d="M221.61,77.12a16,16,0,0,1,11.34,4.36,0.6,0.6,0,0,1,0,.84c-0.23.28-.52,0.56-0.75,0.8a0.46,0.46,0,0,1-.8,0,14.41,14.41,0,0,0-9.89-3.94,14.76,14.76,0,0,0,0,29.52,17.57,17.57,0,0,0,9.75-2.58V97.31h-8a0.5,0.5,0,0,1-.61-0.61V95.76c0-.37.09-0.56,0.61-0.56h9.61a0.61,0.61,0,0,1,.61.56v10.87a1.29,1.29,0,0,1-.65,1.22,21.69,21.69,0,0,1-11.25,3,16.87,16.87,0,0,1-.79-33.73h0.82Z"/><path id="_Compound_Path_6" data-name=" Compound Path 6" d="M280.27,78.2a0.62,0.62,0,0,1,.61-0.61h18.79a0.62,0.62,0,0,1,.61.61V79a0.62,0.62,0,0,1-.61.61H282.49V92.54h14.85a0.62,0.62,0,0,1,.61.61v0.8a0.62,0.62,0,0,1-.61.61H282.49v13.87h17.15a0.62,0.62,0,0,1,.61.61v0.75a0.62,0.62,0,0,1-.61.61H280.85a0.62,0.62,0,0,1-.61-0.61V78.2h0Z"/><path id="_Compound_Path_7" data-name=" Compound Path 7" d="M346.69,77.73a0.64,0.64,0,0,1,.67-0.61h0.83l22.49,29.29h0V78.2a0.62,0.62,0,0,1,.61-0.61h1a0.62,0.62,0,0,1,.61.61v32.05a0.66,0.66,0,0,1-.7.61h-0.66s-0.42-.14-22.68-29.57h0v28.49a0.62,0.62,0,0,1-.61.61h-1a0.62,0.62,0,0,1-.61-0.61V77.73h0Z"/><path id="_Compound_Path_8" data-name=" Compound Path 8" d="M426.27,79.61h-9a0.58,0.58,0,0,1-.61-0.7v-0.7a0.59,0.59,0,0,1,.57-0.61h20.19a0.59,0.59,0,0,1,.61.57s0,0,0,0V79a0.59,0.59,0,0,1-.57.61h-9V109.8a0.66,0.66,0,0,1-.7.61h-0.89a0.62,0.62,0,0,1-.61-0.61V79.61h0Z"/><path id="_Compound_Path_9" data-name=" Compound Path 9" d="M479.84,106l0.42-.56a0.65,0.65,0,0,1,.88-0.27l0.12,0.08a13.63,13.63,0,0,0,8.67,3.61c4.27,0,7.87-2.86,7.87-6.28,0-4.17-3.42-6-9.09-8-5.44-1.92-9-3.84-9-9.23,0-3.51,2.81-8.29,10.12-8.29a15.39,15.39,0,0,1,8.06,2.39,0.67,0.67,0,0,1,.25.91l-0.06.09a4.23,4.23,0,0,0-.37.61,0.67,0.67,0,0,1-.9.29l-0.1-.06a13.73,13.73,0,0,0-6.89-2.2c-5.76,0-7.92,3.56-7.92,6.23,0,4,3,5.72,7.78,7.26,6.42,2.2,10.5,4.45,10.5,9.89,0,4.69-4.83,8.34-10.21,8.34A15.26,15.26,0,0,1,480,107,0.6,0.6,0,0,1,479.84,106Z"/></g></g></svg>