<svg id="Layer_1" data-name="Layer 1" xmlns="http://www.w3.org/2000/svg" viewBox="0 0 35 35"><defs><style>.cls-1{fill:#fff;}</style></defs><title>YouTube Icon</title><path class="cls-1" d="M15.4,20.7c2-1.1,4.4-2.3,6.6-3.4-2.2-1.2-4.6-2.3-6.6-3.4v6.8Z"/><path class="cls-1" d="M17.5,0.5a17,17,0,1,0,17,17A17,17,0,0,0,17.5.5Zm9.8,22.2a2.52,2.52,0,0,1-1.9,1.7,3.4,3.4,0,0,1-1,.1c-1.4.1-2.9,0.2-4.3,0.2H14.6c-1.6,0-3.1-.1-4.7-0.2a2.56,2.56,0,0,1-2.4-2.1c-0.1-.7-0.2-7.5-0.1-7.9a15.17,15.17,0,0,1,.3-2.1,2.38,2.38,0,0,1,1.9-1.7,4.87,4.87,0,0,1,1.2-.1c1.4-.1,2.8-0.2,4.2-0.2h5.5c1.6,0,3.1.1,4.7,0.2a2.67,2.67,0,0,1,2.4,2C27.6,13.2,27.6,22,27.3,22.7Z"/></svg>