<?xml version="1.0" encoding="utf-8"?>
<!-- Generator: Adobe Illustrator 19.2.0, SVG Export Plug-In . SVG Version: 6.00 Build 0)  -->
<svg version="1.1" id="Layer_1" xmlns="http://www.w3.org/2000/svg" xmlns:xlink="http://www.w3.org/1999/xlink" x="0px" y="0px"
	 viewBox="0 0 35 35" style="enable-background:new 0 0 35 35;" xml:space="preserve">
<title>YouTube Icon</title>
<path d="M15.4,20.7c2-1.1,4.4-2.3,6.6-3.4c-2.2-1.2-4.6-2.3-6.6-3.4V20.7z"/>
<path d="M17.5,0.5c-9.4,0-17,7.6-17,17s7.6,17,17,17s17-7.6,17-17S26.9,0.5,17.5,0.5z M27.3,22.7c-0.3,0.9-1,1.5-1.9,1.7
	c-0.3,0.1-0.7,0.1-1,0.1c-1.4,0.1-2.9,0.2-4.3,0.2h-5.5c-1.6,0-3.1-0.1-4.7-0.2c-1.2-0.1-2.2-0.9-2.4-2.1c-0.1-0.7-0.2-7.5-0.1-7.9
	c0.1-0.7,0.2-1.4,0.3-2.1c0.3-0.9,1-1.5,1.9-1.7c0.4-0.1,0.8-0.1,1.2-0.1c1.4-0.1,2.8-0.2,4.2-0.2h5.5c1.6,0,3.1,0.1,4.7,0.2
	c1.1,0.1,2.1,0.9,2.4,2C27.6,13.2,27.6,22,27.3,22.7z"/>
</svg>
